<svg width="20" height="19" viewBox="0 0 20 19" fill="none" xmlns="http://www.w3.org/2000/svg">
<path d="M12.12 2.04834L13.95 4.04834H18V16.0483H2V4.04834H6.05L7.88 2.04834H12.12ZM13 0.0483398H7L5.17 2.04834H2C0.9 2.04834 0 2.94834 0 4.04834V16.0483C0 17.1483 0.9 18.0483 2 18.0483H18C19.1 18.0483 20 17.1483 20 16.0483V4.04834C20 2.94834 19.1 2.04834 18 2.04834H14.83L13 0.0483398ZM10 7.04834C11.65 7.04834 13 8.39834 13 10.0483C13 11.6983 11.65 13.0483 10 13.0483C8.35 13.0483 7 11.6983 7 10.0483C7 8.39834 8.35 7.04834 10 7.04834ZM10 5.04834C7.24 5.04834 5 7.28834 5 10.0483C5 12.8083 7.24 15.0483 10 15.0483C12.76 15.0483 15 12.8083 15 10.0483C15 7.28834 12.76 5.04834 10 5.04834Z" fill="currentColor"/>
</svg>
