<svg width="4" height="17" viewBox="0 0 4 17" fill="none" xmlns="http://www.w3.org/2000/svg">
<path d="M2 4.04834C3.1 4.04834 4 3.14834 4 2.04834C4 0.94834 3.1 0.0483398 2 0.0483398C0.9 0.0483398 0 0.94834 0 2.04834C0 3.14834 0.9 4.04834 2 4.04834ZM2 6.04834C0.9 6.04834 0 6.94834 0 8.04834C0 9.14834 0.9 10.0483 2 10.0483C3.1 10.0483 4 9.14834 4 8.04834C4 6.94834 3.1 6.04834 2 6.04834ZM2 12.0483C0.9 12.0483 0 12.9483 0 14.0483C0 15.1483 0.9 16.0483 2 16.0483C3.1 16.0483 4 15.1483 4 14.0483C4 12.9483 3.1 12.0483 2 12.0483Z" fill="currentColor"/>
</svg>
