<svg width="16" height="22" viewBox="0 0 16 22" fill="none" xmlns="http://www.w3.org/2000/svg">
<path d="M14 7.50006H13V5.50006C13 2.74006 10.76 0.500061 8 0.500061C5.24 0.500061 3 2.74006 3 5.50006V7.50006H2C0.9 7.50006 0 8.40006 0 9.50006V19.5001C0 20.6001 0.9 21.5001 2 21.5001H14C15.1 21.5001 16 20.6001 16 19.5001V9.50006C16 8.40006 15.1 7.50006 14 7.50006ZM5 5.50006C5 3.84006 6.34 2.50006 8 2.50006C9.66 2.50006 11 3.84006 11 5.50006V7.50006H5V5.50006ZM14 19.5001H2V9.50006H14V19.5001ZM8 16.5001C9.1 16.5001 10 15.6001 10 14.5001C10 13.4001 9.1 12.5001 8 12.5001C6.9 12.5001 6 13.4001 6 14.5001C6 15.6001 6.9 16.5001 8 16.5001Z" fill="#81737A"/>
</svg>
